<svg xmlns="http://www.w3.org/2000/svg" width="250" height="100" viewBox="0 0 250 100">
    <defs>
        <style>
            .prefix__cls-2{fill:#fff}
        </style>
    </defs>
    <g id="prefix__Groupe_197" data-name="Groupe 197" transform="translate(-250)">
        <path id="prefix__Rectangle_1" fill="#e84c22" d="M0 0H250V100H0z" data-name="Rectangle 1" transform="translate(250)"/>
        <g id="prefix__Groupe_2" data-name="Groupe 2" transform="translate(-505.016 -2418.594)">
            <path id="prefix__Tracé_1" d="M838.016 2453.9a9.188 9.188 0 0 1 2.739-6.593 9.7 9.7 0 0 1 2.974-1.99 9.478 9.478 0 0 1 7.265 0 9.287 9.287 0 0 1 2.972 1.99 9.678 9.678 0 0 1 2.017 2.972 8.911 8.911 0 0 1 .749 3.62v15.046a1.851 1.851 0 0 1-.6 1.4 1.923 1.923 0 0 1-1.369.569 1.943 1.943 0 0 1-1.964-1.964v-15.05a5.008 5.008 0 0 0-.44-2.068 6.035 6.035 0 0 0-1.163-1.733 5.047 5.047 0 0 0-1.732-1.163 5.48 5.48 0 0 0-2.094-.413 5.39 5.39 0 0 0-5.015 3.31 5.258 5.258 0 0 0-.413 2.068v15.046a1.856 1.856 0 0 1-.6 1.4 1.925 1.925 0 0 1-1.369.569 1.942 1.942 0 0 1-1.964-1.964z" class="prefix__cls-2" data-name="Tracé 1" transform="translate(0 -.002)"/>
            <path id="prefix__Tracé_2" d="M936.687 2453.9a9.191 9.191 0 0 1 2.74-6.593 9.7 9.7 0 0 1 2.974-1.99 9.478 9.478 0 0 1 7.264 0 9.294 9.294 0 0 1 2.972 1.99 9.65 9.65 0 0 1 2.017 2.972 8.907 8.907 0 0 1 .75 3.62v3.981a1.94 1.94 0 0 1-1.965 1.964h-12.823v1.758a5.014 5.014 0 0 0 .439 2.068 5.972 5.972 0 0 0 1.164 1.733 5.007 5.007 0 0 0 1.732 1.163 5.443 5.443 0 0 0 2.094.414 5.382 5.382 0 0 0 4.964-3.154l.052-.156a1.806 1.806 0 0 1 .7-.9 1.919 1.919 0 0 1 1.111-.336 1.863 1.863 0 0 1 1.4.593 1.93 1.93 0 0 1 .569 1.371 2.407 2.407 0 0 1-.259.93 9.309 9.309 0 0 1-3.36 4.033 8.97 8.97 0 0 1-5.171 1.551 9.165 9.165 0 0 1-3.62-.724 9.288 9.288 0 0 1-2.972-1.99 9.6 9.6 0 0 1-2.016-2.973 8.894 8.894 0 0 1-.75-3.619zm3.929 2.017h10.858v-2.017a5.01 5.01 0 0 0-.439-2.068 6.042 6.042 0 0 0-1.164-1.733 5.048 5.048 0 0 0-1.732-1.163 5.471 5.471 0 0 0-2.094-.413 5.39 5.39 0 0 0-5.015 3.31 5.255 5.255 0 0 0-.413 2.068z" class="prefix__cls-2" data-name="Tracé 2" transform="translate(-76.853 -.002)"/>
            <path id="prefix__Tracé_3" d="M1033.953 2453.9a9.2 9.2 0 0 1 2.741-6.593 9.688 9.688 0 0 1 2.972-1.99 9.478 9.478 0 0 1 7.265 0 9.314 9.314 0 0 1 2.973 1.99 9.706 9.706 0 0 1 2.017 2.972 8.931 8.931 0 0 1 .75 3.62v7.7a9.167 9.167 0 0 1-.725 3.619 9.075 9.075 0 0 1-2.016 2.973 9.585 9.585 0 0 1-3 1.99 9.409 9.409 0 0 1-7.24 0 9.29 9.29 0 0 1-2.972-1.99 9.619 9.619 0 0 1-2.016-2.973 8.9 8.9 0 0 1-.75-3.619zm3.929 7.7a5 5 0 0 0 .44 2.068 5.991 5.991 0 0 0 1.163 1.733 5 5 0 0 0 1.732 1.163 5.576 5.576 0 0 0 4.215 0 5.42 5.42 0 0 0 2.9-2.9 5.279 5.279 0 0 0 .413-2.068v-7.7a5.014 5.014 0 0 0-.44-2.068 6.033 6.033 0 0 0-1.163-1.733 5.061 5.061 0 0 0-1.732-1.163 5.479 5.479 0 0 0-2.094-.413 5.4 5.4 0 0 0-5.017 3.31 5.283 5.283 0 0 0-.413 2.068z" class="prefix__cls-2" data-name="Tracé 3" transform="translate(-152.611 -.002)"/>
            <g id="prefix__Groupe_1" data-name="Groupe 1" transform="translate(900.132 2466.982)">
                <path id="prefix__Tracé_4" d="M1118.932 2547.806a1.942 1.942 0 0 1 1.964-1.965 1.926 1.926 0 0 1 1.371.569 1.86 1.86 0 0 1 .594 1.4 1.94 1.94 0 0 1-1.965 1.964 1.921 1.921 0 0 1-1.37-.569 1.855 1.855 0 0 1-.594-1.399z" class="prefix__cls-2" data-name="Tracé 4" transform="translate(-1118.932 -2545.841)"/>
            </g>
            <path id="prefix__Tracé_5" d="M1153.226 2449.785a8.874 8.874 0 0 0-1.94-2.683 9.287 9.287 0 0 0-2.857-1.829 9.422 9.422 0 0 0-7.024 0 9.31 9.31 0 0 0-2.856 1.829 8.842 8.842 0 0 0-1.206 1.419 9.041 9.041 0 0 0-.732 1.264 7.7 7.7 0 0 0-.727 3.3v.972a7.691 7.691 0 0 0 .727 3.3 8.885 8.885 0 0 0 1.938 2.683 8.414 8.414 0 0 0 .728.609 9.223 9.223 0 0 0 2.134 1.2 9.611 9.611 0 0 0 6.523.17 10.028 10.028 0 0 0 1.987-.937v1.054a5.963 5.963 0 0 1-.279 1.766 2.642 2.642 0 0 1-.1.289 4.647 4.647 0 0 1-1.062 1.475c-.08.076-.177.133-.263.2a5.251 5.251 0 0 1-3.545 1.313 5.432 5.432 0 0 1-2.079-.409 4.955 4.955 0 0 1-1.719-1.155 6 6 0 0 1-.506-.621c-.281-.377-1.234-1.011-2.587.194a1.779 1.779 0 0 0-.589 1.375 2.1 2.1 0 0 0 .464 1.3c.052.063.109.121.163.181.1.114.2.231.31.34a9.183 9.183 0 0 0 2.949 1.975 9.328 9.328 0 0 0 7.183 0 9.561 9.561 0 0 0 2.361-1.425c.211-.174.418-.357.615-.55a9 9 0 0 0 2-2.95 9.1 9.1 0 0 0 .719-3.591v-8.766a7.71 7.71 0 0 0-.73-3.292zm-3.742 6.195a4.739 4.739 0 0 1-1.062 1.438 5.089 5.089 0 0 1-1.569.969 5.261 5.261 0 0 1-3.863-.017 5.48 5.48 0 0 1-1.6-1.014 4.691 4.691 0 0 1-1.082-1.473 4.209 4.209 0 0 1-.4-1.821v-.972a4.33 4.33 0 0 1 .377-1.786 4.808 4.808 0 0 1 .395-.694 4.6 4.6 0 0 1 .667-.8 4.9 4.9 0 0 1 1.6-1 5.439 5.439 0 0 1 1.982-.362 5.307 5.307 0 0 1 1.936.362 4.688 4.688 0 0 1 1.582 1 5.1 5.1 0 0 1 1.068 1.5 4.159 4.159 0 0 1 .4 1.763v1.176a4.432 4.432 0 0 1-.431 1.73z" class="prefix__cls-2" data-name="Tracé 5" transform="translate(-232.003)"/>
        </g>
        <g id="prefix__Groupe_199" data-name="Groupe 199" transform="translate(-1226.576 -2291.926)">
            <g id="prefix__Groupe_199-2" data-name="Groupe 199" transform="translate(1514.785 2362.775)">
                <path id="prefix__Tracé_127" d="M1514.785 2369.295V2363h4.977v1.138h-3.737v1.36h3.062v1.138h-3.062v1.517h3.737v1.138z" class="prefix__cls-2" data-name="Tracé 127" transform="translate(-1514.785 -2362.912)"/>
                <path id="prefix__Tracé_128" d="M1537.777 2363h2.627c1.369 0 2.183.528 2.183 1.675a1.38 1.38 0 0 1-.972 1.341 1.551 1.551 0 0 1 1.471 1.59c0 1.037-.786 1.684-2.257 1.684h-3.053zm2.415 2.526c.656 0 1.055-.186 1.055-.7 0-.546-.37-.712-1.027-.712h-1.147v1.415zm.453 2.655c.712 0 1.054-.231 1.054-.74 0-.573-.416-.777-1.166-.777h-1.461v1.517z" class="prefix__cls-2" data-name="Tracé 128" transform="translate(-1528.565 -2362.912)"/>
                <path id="prefix__Tracé_129" d="M1562.548 2366.557a1.446 1.446 0 0 0 1.554 1.638 1.477 1.477 0 0 0 1.582-1.646V2363h1.295v3.636a2.672 2.672 0 0 1-2.877 2.756 2.6 2.6 0 0 1-2.849-2.756V2363h1.3z" class="prefix__cls-2" data-name="Tracé 129" transform="translate(-1542.635 -2362.912)"/>
                <path id="prefix__Tracé_130" d="M1587.35 2366.386a1.676 1.676 0 0 1-1.443-1.684c0-1.045.787-1.905 2.516-1.905a5.161 5.161 0 0 1 2.257.5l-.37 1.212a3.941 3.941 0 0 0-1.933-.528c-.8 0-1.128.25-1.128.611 0 .342.231.48.684.61l1.166.333c1.138.324 1.693.842 1.693 1.739 0 1.184-1.045 1.988-2.562 1.988a5 5 0 0 1-2.22-.545l.305-1.231a3.741 3.741 0 0 0 1.942.592c.759 0 1.184-.287 1.184-.7 0-.343-.333-.509-.9-.666z" class="prefix__cls-2" data-name="Tracé 130" transform="translate(-1557.411 -2362.788)"/>
                <path id="prefix__Tracé_131" d="M1608.6 2363h1.3v6.291h-1.3z" class="prefix__cls-2" data-name="Tracé 131" transform="translate(-1571.011 -2362.912)"/>
                <path id="prefix__Tracé_132" d="M1624.621 2365.068v4.227h-1.3V2363h1.129l3.533 4.237V2363h1.295v6.291h-1.128z" class="prefix__cls-2" data-name="Tracé 132" transform="translate(-1579.837 -2362.912)"/>
                <path id="prefix__Tracé_133" d="M1649.688 2369.295V2363h4.976v1.138h-3.737v1.36h3.062v1.138h-3.062v1.517h3.737v1.138z" class="prefix__cls-2" data-name="Tracé 133" transform="translate(-1595.637 -2362.912)"/>
                <path id="prefix__Tracé_134" d="M1673.176 2366.386a1.676 1.676 0 0 1-1.443-1.684c0-1.045.787-1.905 2.516-1.905a5.158 5.158 0 0 1 2.257.5l-.37 1.212a3.943 3.943 0 0 0-1.934-.528c-.8 0-1.128.25-1.128.611 0 .342.231.48.684.61l1.166.333c1.138.324 1.693.842 1.693 1.739 0 1.184-1.045 1.988-2.562 1.988a5 5 0 0 1-2.22-.545l.305-1.231a3.741 3.741 0 0 0 1.943.592c.758 0 1.184-.287 1.184-.7 0-.343-.333-.509-.9-.666z" class="prefix__cls-2" data-name="Tracé 134" transform="translate(-1608.849 -2362.788)"/>
                <path id="prefix__Tracé_135" d="M1694.922 2366.386a1.675 1.675 0 0 1-1.443-1.684c0-1.045.786-1.905 2.516-1.905a5.163 5.163 0 0 1 2.257.5l-.37 1.212a3.943 3.943 0 0 0-1.933-.528c-.8 0-1.129.25-1.129.611 0 .342.231.48.684.61l1.166.333c1.138.324 1.693.842 1.693 1.739 0 1.184-1.045 1.988-2.562 1.988a5 5 0 0 1-2.22-.545l.305-1.231a3.74 3.74 0 0 0 1.943.592c.758 0 1.184-.287 1.184-.7 0-.343-.333-.509-.9-.666z" class="prefix__cls-2" data-name="Tracé 135" transform="translate(-1621.882 -2362.788)"/>
                <path id="prefix__Tracé_136" d="M1728.866 2363h2.627c1.369 0 2.183.528 2.183 1.675a1.379 1.379 0 0 1-.971 1.341 1.552 1.552 0 0 1 1.471 1.59c0 1.037-.786 1.684-2.257 1.684h-3.053zm2.415 2.526c.656 0 1.054-.186 1.054-.7 0-.546-.37-.712-1.027-.712h-1.147v1.415zm.453 2.655c.713 0 1.054-.231 1.054-.74 0-.573-.416-.777-1.166-.777h-1.461v1.517z" class="prefix__cls-2" data-name="Tracé 136" transform="translate(-1643.091 -2362.912)"/>
                <path id="prefix__Tracé_137" d="M1753.638 2366.557a1.446 1.446 0 0 0 1.554 1.638 1.476 1.476 0 0 0 1.581-1.646V2363h1.3v3.636a2.672 2.672 0 0 1-2.877 2.756 2.6 2.6 0 0 1-2.849-2.756V2363h1.3z" class="prefix__cls-2" data-name="Tracé 137" transform="translate(-1657.161 -2362.912)"/>
                <path id="prefix__Tracé_138" d="M1777.942 2363h1.3v6.291h-1.3z" class="prefix__cls-2" data-name="Tracé 138" transform="translate(-1672.504 -2362.912)"/>
                <path id="prefix__Tracé_139" d="M1792.67 2369.295V2363h1.295v5.162h3.265v1.128z" class="prefix__cls-2" data-name="Tracé 139" transform="translate(-1681.331 -2362.912)"/>
                <path id="prefix__Tracé_140" d="M1814.044 2364.3v4.995h-1.295v-4.995h-2.072v-1.3h5.365v1.3z" class="prefix__cls-2" data-name="Tracé 140" transform="translate(-1692.123 -2362.912)"/>
                <path id="prefix__Tracé_141" d="M1846.641 2363h2.766c1.24 0 2.507.5 2.507 2.045a1.98 1.98 0 0 1-1.776 1.951c.592.573 1.2 1.268 1.859 1.268a1.885 1.885 0 0 0 .7-.148l.129 1.026a2.379 2.379 0 0 1-1.036.24c-1.406 0-2.442-1.776-3.228-2.358h-.629v2.266h-1.295zm1.295 1.129v1.877h1.61a.922.922 0 0 0 1.017-.935.909.909 0 0 0-1.017-.943z" class="prefix__cls-2" data-name="Tracé 141" transform="translate(-1713.677 -2362.912)"/>
                <path id="prefix__Tracé_142" d="M1871.5 2363h1.295v6.291h-1.295z" class="prefix__cls-2" data-name="Tracé 142" transform="translate(-1728.578 -2362.912)"/>
                <path id="prefix__Tracé_143" d="M1891.314 2365.439v2.95a4.842 4.842 0 0 1-2.682.861 3.239 3.239 0 1 1 0-6.475 3.764 3.764 0 0 1 2.441.851l-.6.989a2.722 2.722 0 0 0-1.813-.638 2.035 2.035 0 1 0 .056 4.07 2.6 2.6 0 0 0 1.3-.333v-1.156h-1.656v-1.119z" class="prefix__cls-2" data-name="Tracé 143" transform="translate(-1736.837 -2362.775)"/>
                <path id="prefix__Tracé_144" d="M1915.808 2366.687h-3.376v2.608h-1.295V2363h1.295v2.553h3.376V2363h1.3v6.291h-1.3z" class="prefix__cls-2" data-name="Tracé 144" transform="translate(-1752.333 -2362.912)"/>
                <path id="prefix__Tracé_145" d="M1939.273 2364.3v4.995h-1.3v-4.995h-2.072v-1.3h5.365v1.3z" class="prefix__cls-2" data-name="Tracé 145" transform="translate(-1767.177 -2362.912)"/>
            </g>
        </g>
    </g>
</svg>
